<?xml version="1.0" encoding="utf-8"?>
<svg xmlns="http://www.w3.org/2000/svg" viewBox="-0.0075 -0.0058 36.9075 38.5121" width="32px" height="32px">
  <defs>
    <style type="text/css">
			.st0{fill:#95B4AF;}
		</style>
  </defs>
  <path class="st0" d="M2.5,9.4c1.6-2.9,4-5.3,6.9-6.9c3-1.7,6.3-2.5,9.8-2.5c3.9-0.1,7.8,1.1,11.1,3.2c3.2,2.2,5.5,5.3,6.6,9h-8.7 c-0.8-1.7-2-3.1-3.6-4.1c-1.7-0.9-3.5-1.4-5.4-1.3c-2.1,0-4.1,0.5-5.9,1.5c-1.7,1-3.1,2.6-4,4.4c-1,2.1-1.5,4.3-1.4,6.6 c0,2.3,0.4,4.5,1.4,6.6c0.9,1.8,2.3,3.3,4,4.4c1.8,1,3.8,1.6,5.9,1.5c1.9,0,3.8-0.4,5.4-1.4c1.6-1,2.9-2.4,3.6-4.1h8.7 c-1.1,3.7-3.5,6.8-6.6,9c-3.3,2.2-7.2,3.3-11.1,3.2c-3.4,0-6.8-0.8-9.8-2.5c-2.9-1.6-5.2-4-6.9-6.8c-1.7-3-2.6-6.5-2.5-10 C-0.1,15.9,0.8,12.4,2.5,9.4z" id="object-0" style="fill: rgb(255, 150, 97);"/>
</svg>